# xmcd CD database file
#
# Track frame offsets:
#	150
#	22054
#	36330
#	50495
#	65109
#	78661
#	93564
#	106659
#	120597
#	132647
#	147435
#	158817
#	172369
#	186669
#	199949
#	214256
#
# Disc length: 3054 seconds
#
# Revision: 0
# Processed by: cddbd v1.5.2PL0 Copyright (c) Steve Scherf et al.
# Submitted via: CDex 1.51
#
DISCID=030bec10
DTITLE=Red Johnson - My Collection
DYEAR=1900
DGENRE=Country
TTITLE0=Red Johnson - You Made Me Overnight
TTITLE1=Red Johnson - Let It Be You
TTITLE2=Red Johnson - Reynosa - Old Mexico
TTITLE3=Red Johnson - Thanks Darling
TTITLE4=Red Johnson - Manhandled
TTITLE5=Red Johnson - Blue Rose
TTITLE6=Red Johnson - Trains Of Memory
TTITLE7=Red Johnson - How Can I Sing For Jeasus
TTITLE8=Red Johnson - Big Sky Country
TTITLE9=Red Johnson - There Will Always Be Cowboys
TTITLE10=Red Johnson - Cry My Sale Gently
TTITLE11=Red Johnson - What You Threw Away
TTITLE12=Red Johnson - This Marriage
TTITLE13=Red Johnson - Cajun Accordian
TTITLE14=Red Johnson - What Is To Be Will Be
TTITLE15=Red Johnson - When You Say Texas
EXTD=
EXTT0=
EXTT1=
EXTT2=
EXTT3=
EXTT4=
EXTT5=
EXTT6=
EXTT7=
EXTT8=
EXTT9=
EXTT10=
EXTT11=
EXTT12=
EXTT13=
EXTT14=
EXTT15=
PLAYORDER=
